<?xml version="1.0" standalone="no"?>
<svg width="64" height="64" viewBox="0 0 410 384" version="1.1" xmlns="http://www.w3.org/2000/svg">
  <path d="M384 37h-359c-14 0 -25 11 -25 25v260c0 14 11 25 25 25h359c14 0 26 -11 26 -25v-260c0 -14 -12 -25 -26 -25zM359 87v210h-309v-210h309zM162 111c-5 0 -10 2 -13 5l-25 25l-31 -25c-8 -6 -19 -6 -25 2s-6 19 2 25l44 36c7 6 17 6 24 -1l21 -21l46 72c4 5 9 8 16 8 s12 -4 15 -10l27 -58l52 92c5 9 16 12 25 7s12 -15 7 -24l-70 -123c-3 -6 -9 -9 -16 -9s-13 5 -16 11l-28 59l-40 -63c-3 -5 -8 -7 -13 -8h-2z" transform="matrix(1,0,0,-1,0,384)"/>
</svg>